# camera frustums exported by colmap2ply.py
v 0.000000 1.000000 -5.000000 31 119 180
v -1.031721 0.419657 -3.387935 31 119 180
v 1.031721 0.419657 -3.387935 31 119 180
v 1.031721 1.580343 -3.387935 31 119 180
v -1.031721 1.580343 -3.387935 31 119 180
v 3.535534 1.000000 -3.535534 255 127 14
v 1.666095 0.419657 -3.125169 255 127 14
v 3.125169 0.419657 -1.666095 255 127 14
v 3.125169 1.580343 -1.666095 255 127 14
v 1.666095 1.580343 -3.125169 255 127 14
v 5.000000 1.000000 0.000000 44 160 44
v 3.387935 0.419657 -1.031721 44 160 44
v 3.387935 0.419657 1.031721 44 160 44
v 3.387935 1.580343 1.031721 44 160 44
v 3.387935 1.580343 -1.031721 44 160 44
v 3.535534 1.000000 3.535534 214 39 40
v 3.125169 0.419657 1.666095 214 39 40
v 1.666095 0.419657 3.125169 214 39 40
v 1.666095 1.580343 3.125169 214 39 40
v 3.125169 1.580343 1.666095 214 39 40
v 0.000000 1.000000 5.000000 148 103 189
v 1.031721 0.419657 3.387935 148 103 189
v -1.031721 0.419657 3.387935 148 103 189
v -1.031721 1.580343 3.387935 148 103 189
v 1.031721 1.580343 3.387935 148 103 189
v -3.535534 1.000000 3.535534 140 86 75
v -1.666095 0.419657 3.125169 140 86 75
v -3.125169 0.419657 1.666095 140 86 75
v -3.125169 1.580343 1.666095 140 86 75
v -1.666095 1.580343 3.125169 140 86 75
v -5.000000 1.000000 0.000000 227 119 194
v -3.387935 0.419657 1.031721 227 119 194
v -3.387935 0.419657 -1.031721 227 119 194
v -3.387935 1.580343 -1.031721 227 119 194
v -3.387935 1.580343 1.031721 227 119 194
v -3.535534 1.000000 -3.535534 127 127 127
v -3.125169 0.419657 -1.666095 127 127 127
v -1.666095 0.419657 -3.125169 127 127 127
v -1.666095 1.580343 -3.125169 127 127 127
v -3.125169 1.580343 -1.666095 127 127 127
l 1 2
l 2 3
l 1 3
l 3 4
l 1 4
l 4 5
l 1 5
l 5 2
l 6 7
l 7 8
l 6 8
l 8 9
l 6 9
l 9 10
l 6 10
l 10 7
l 11 12
l 12 13
l 11 13
l 13 14
l 11 14
l 14 15
l 11 15
l 15 12
l 16 17
l 17 18
l 16 18
l 18 19
l 16 19
l 19 20
l 16 20
l 20 17
l 21 22
l 22 23
l 21 23
l 23 24
l 21 24
l 24 25
l 21 25
l 25 22
l 26 27
l 27 28
l 26 28
l 28 29
l 26 29
l 29 30
l 26 30
l 30 27
l 31 32
l 32 33
l 31 33
l 33 34
l 31 34
l 34 35
l 31 35
l 35 32
l 36 37
l 37 38
l 36 38
l 38 39
l 36 39
l 39 40
l 36 40
l 40 37
