# camera frustums exported by colmap2ply.py
v 0.820649 -0.235083 2.200929 31 119 180
v -7.631394 -5.951043 13.146762 31 119 180
v 7.827863 -5.878465 14.158007 31 119 180
v 7.778768 5.736670 14.026463 31 119 180
v -7.673234 5.665396 13.015679 31 119 180
v 6.551646 -0.068733 2.330248 255 127 14
v -4.103528 -5.101904 11.552772 255 127 14
v 10.862350 -5.679439 15.515782 255 127 14
v 11.401361 5.918518 15.158093 255 127 14
v -3.557430 6.497050 11.196904 255 127 14
v 6.553285 -0.017282 2.302883 44 160 44
v -4.526187 -5.217133 10.912606 44 160 44
v 10.231952 -5.850460 15.583016 44 160 44
v 10.768439 5.752373 15.450660 44 160 44
v -3.982710 6.386671 10.782429 44 160 44
v 8.105213 -0.103456 2.862991 214 39 40
v -3.599974 -5.155754 10.697746 214 39 40
v 10.795958 -5.967037 16.364798 214 39 40
v 11.484777 5.628087 16.266291 214 39 40
v -2.904318 6.440257 10.601889 214 39 40
v 5.446716 0.013220 1.557977 148 103 189
v -5.308542 -5.218654 10.550886 148 103 189
v 9.628011 -6.069482 14.574813 148 103 189
v 10.277860 5.528276 14.602696 148 103 189
v -4.651607 6.379972 10.580662 148 103 189
v 3.950406 0.195140 0.507327 140 86 75
v -6.057591 -5.451596 10.092466 140 86 75
v 9.117396 -5.838614 13.188673 140 86 75
v 9.391249 5.773765 13.282173 140 86 75
v -5.776580 6.161871 10.187429 140 86 75
v 2.634507 0.321038 -0.360997 227 119 194
v -6.493557 -5.435352 10.005436 227 119 194
v 8.882050 -5.555584 11.900896 227 119 194
v 8.967037 6.060069 11.922451 227 119 194
v -6.401339 6.181514 10.027882 227 119 194
v 2.648581 0.328857 -0.306952 127 127 127
v -6.522240 -4.616533 10.433609 127 127 127
v 8.851777 -4.712139 12.343313 127 127 127
v 9.019786 6.875177 11.545219 127 127 127
v -6.346993 6.972005 9.636323 127 127 127
v 2.652979 0.320018 -0.397437 188 189 34
v -6.549819 -5.822666 9.677108 188 189 34
v 8.806904 -5.942453 11.719954 188 189 34
v 8.838990 5.666053 12.135467 188 189 34
v -6.510517 5.787053 10.093626 188 189 34
v 1.445171 0.299327 -0.743278 23 190 207
v -7.171102 -5.836646 9.841153 23 190 207
v 8.271101 -5.812242 11.087863 23 190 207
v 8.223490 5.799148 11.411016 23 190 207
v -7.211466 5.776025 10.164926 23 190 207
v 0.126552 0.308195 -1.032091 31 119 180
v -8.431106 -5.807258 9.611603 31 119 180
v 7.017170 -5.767108 10.780215 31 119 180
v 6.961633 5.845039 11.073508 31 119 180
v -8.479394 5.806179 9.905476 31 119 180
v -0.972628 -0.207563 1.581112 255 127 14
v -8.908595 -5.976796 12.879647 255 127 14
v 6.579885 -5.843764 13.204937 255 127 14
v 6.479200 5.771294 13.098231 255 127 14
v -9.002016 5.639594 12.773082 255 127 14
v -3.383517 0.238054 -1.097318 44 160 44
v -11.040779 -5.962751 10.164870 44 160 44
v 4.449635 -5.711033 10.179677 44 160 44
v 4.257529 5.900078 10.455881 44 160 44
v -11.225631 5.649747 10.441111 44 160 44
v -1.214704 -0.343178 2.168830 214 39 40
v -9.301185 -6.459308 13.174387 214 39 40
v 6.183591 -6.433907 13.661817 214 39 40
v 6.151808 5.178052 13.965907 214 39 40
v -9.325699 5.153933 13.478739 214 39 40
v -1.208421 -0.061357 1.009520 148 103 189
v -9.411102 -4.860236 12.568382 148 103 189
v 6.069415 -4.848323 13.176631 148 103 189
v 6.096972 6.723763 12.168099 148 103 189
v -9.376271 6.713121 11.560026 148 103 189
v -0.813640 0.031983 0.179772 140 86 75
v -9.025246 -6.169540 11.043986 140 86 75
v 6.452825 -6.144171 11.711212 140 86 75
v 6.413738 5.465134 12.103127 140 86 75
v -9.057068 5.441046 11.436257 140 86 75
v 0.731207 0.315513 -0.908235 227 119 194
v -8.767495 -5.751449 8.934892 227 119 194
v 6.532197 -5.991063 11.359451 227 119 194
v 6.645087 5.616969 11.774080 227 119 194
v -8.647408 5.857740 9.350703 227 119 194
v 0.431639 0.622328 -2.474911 127 127 127
v -8.692901 -5.551677 7.651537 127 127 127
v 6.677895 -5.656764 9.586507 127 127 127
v 6.698864 5.950920 10.025029 127 127 127
v -8.664711 6.057227 8.091015 127 127 127
v 1.428892 0.631949 -2.349605 188 189 34
v -7.816060 -5.531358 7.673618 188 189 34
v 7.532496 -5.663369 9.776213 188 189 34
v 7.568261 5.944056 10.220604 188 189 34
v -7.773082 6.077274 8.119044 188 189 34
v 2.983770 0.635125 -2.036265 23 190 207
v -7.069331 -5.399700 7.260861 23 190 207
v 8.076813 -5.756857 10.498646 23 190 207
v 8.247542 5.848504 10.965039 23 190 207
v -6.891470 6.206763 7.728825 23 190 207
v 5.030659 0.590873 -1.240167 31 119 180
v -5.840136 -5.340318 7.160266 31 119 180
v 8.979274 -5.924735 11.639111 31 119 180
v 9.269947 5.675008 12.179987 31 119 180
v -5.542471 6.260419 7.703304 31 119 180
v 6.967056 0.511945 -0.851291 255 127 14
v -4.371728 -5.283348 7.007911 255 127 14
v 10.198828 -6.012963 12.221648 255 127 14
v 10.585819 5.584375 12.753690 255 127 14
v -3.977851 6.314915 7.542459 255 127 14
v -3.090359 -0.182603 1.098111 44 160 44
v -10.668821 -6.163554 12.531206 44 160 44
v 4.822201 -6.014870 12.380689 44 160 44
v 4.708570 5.600091 12.484843 44 160 44
v -10.775189 5.452747 12.635300 44 160 44
v -6.245804 0.520523 -3.156960 214 39 40
v -13.774347 -5.535796 8.269437 214 39 40
v 1.715902 -5.414568 8.037076 214 39 40
v 1.624782 6.199410 8.232712 214 39 40
v -13.858202 6.079509 8.464984 214 39 40
v -6.267816 0.549945 -3.079731 148 103 189
v -13.809321 -4.536191 8.802080 148 103 189
v 1.681180 -4.431379 8.578758 148 103 189
v 1.588475 7.158581 7.807193 148 103 189
v -13.894762 7.055085 8.030325 148 103 189
v -2.465630 -0.127584 1.155247 140 86 75
v -10.289679 -5.607138 12.673895 140 86 75
v 5.201934 -5.527755 12.815741 140 86 75
v 5.142669 6.082180 12.445647 140 86 75
v -10.341676 6.004104 12.303826 140 86 75
v -2.266712 -0.048665 0.467800 227 119 194
v -10.273690 -6.489726 11.345370 227 119 194
v 5.212777 -6.398058 11.766604 227 119 194
v 5.124469 5.201772 12.372582 227 119 194
v -10.354734 5.111416 11.951612 227 119 194
v -2.481692 -0.539571 -0.575447 127 127 127
v -10.864219 -5.551482 10.761858 127 127 127
v 4.604780 -5.550907 11.614259 127 127 127
v 4.644917 6.037860 10.820576 127 127 127
v -10.816812 6.038553 9.968488 127 127 127
v -2.468665 -0.600671 -0.561821 188 189 34
v -10.011039 -5.705530 11.311406 188 189 34
v 5.479311 -5.542001 11.114370 188 189 34
v 5.343867 6.046875 10.332902 188 189 34
v -10.139223 5.884690 10.529759 188 189 34
v -4.882757 -1.074697 1.645754 23 190 207
v -12.171511 -6.139258 13.693359 23 190 207
v 3.311227 -5.960465 13.174345 23 190 207
v 3.146615 5.625005 12.349197 23 190 207
v -12.328869 5.447563 12.867877 23 190 207
v -2.863431 -0.834512 0.440799 31 119 180
v -10.621704 -6.839132 11.740101 31 119 180
v 4.870269 -6.737408 11.810329 31 119 180
v 4.790159 4.877320 11.961131 31 119 180
v -10.694547 4.776915 11.890952 31 119 180
v -2.459366 -0.665105 -1.531250 255 127 14
v -10.123632 -5.351313 10.436163 255 127 14
v 5.368361 -5.250358 10.369281 255 127 14
v 5.284871 6.307146 9.208163 255 127 14
v -10.199855 6.207503 9.274887 255 127 14
v -2.436283 -0.661203 -1.643729 44 160 44
v -10.183609 -6.746875 9.619665 44 160 44
v 5.307479 -6.565315 9.718318 44 160 44
v 5.166977 5.048219 9.911073 44 160 44
v -10.316852 4.868015 9.812487 44 160 44
v -2.982712 0.094490 -0.125603 214 39 40
v -10.943729 -5.868392 11.054144 214 39 40
v 4.544811 -5.785883 11.392995 214 39 40
v 4.477219 5.829317 11.509761 214 39 40
v -11.004054 5.748117 11.171081 214 39 40
v 2.370579 -0.631835 -0.939912 148 103 189
v -7.012238 -6.530054 9.114652 148 103 189
v 8.314743 -6.731027 11.364041 148 103 189
v 8.431982 4.882338 11.581022 148 103 189
v -6.887788 5.084487 9.332712 148 103 189
v -3.024645 0.112017 -0.030119 140 86 75
v -11.188518 -4.637504 11.576505 140 86 75
v 4.294059 -4.630371 12.129932 140 86 75
v 4.323248 6.937640 11.075728 140 86 75
v -11.152054 6.931775 10.522445 140 86 75
v -2.978292 0.052650 -0.132039 227 119 194
v -10.916185 -6.124583 10.947319 227 119 194
v 4.572176 -6.000381 11.281627 227 119 194
v 4.469102 5.610871 11.596687 227 119 194
v -11.011996 5.487997 11.262570 227 119 194
v -0.937683 -0.093979 1.349103 127 127 127
v -9.228595 -5.389588 12.624643 127 127 127
v 6.244628 -5.316688 13.393115 127 127 127
v 6.214215 6.286130 12.841059 127 127 127
v -9.251744 6.214533 12.072887 127 127 127
v 0.891176 -0.122057 1.531149 188 189 34
v -7.981341 -5.385719 12.370559 188 189 34
v 7.439720 -5.536625 13.848597 188 189 34
v 7.593960 6.069323 13.391167 188 189 34
v -7.819842 6.221428 11.913772 188 189 34
v 4.389512 -0.203354 2.713907 23 190 207
v -5.946360 -5.308551 12.254725 23 190 207
v 9.137789 -5.801792 15.753534 23 190 207
v 9.597487 5.799496 15.393154 23 190 207
v -5.479528 6.293773 11.895949 23 190 207
l 1 2
l 2 3
l 1 3
l 3 4
l 1 4
l 4 5
l 1 5
l 5 2
l 6 7
l 7 8
l 6 8
l 8 9
l 6 9
l 9 10
l 6 10
l 10 7
l 11 12
l 12 13
l 11 13
l 13 14
l 11 14
l 14 15
l 11 15
l 15 12
l 16 17
l 17 18
l 16 18
l 18 19
l 16 19
l 19 20
l 16 20
l 20 17
l 21 22
l 22 23
l 21 23
l 23 24
l 21 24
l 24 25
l 21 25
l 25 22
l 26 27
l 27 28
l 26 28
l 28 29
l 26 29
l 29 30
l 26 30
l 30 27
l 31 32
l 32 33
l 31 33
l 33 34
l 31 34
l 34 35
l 31 35
l 35 32
l 36 37
l 37 38
l 36 38
l 38 39
l 36 39
l 39 40
l 36 40
l 40 37
l 41 42
l 42 43
l 41 43
l 43 44
l 41 44
l 44 45
l 41 45
l 45 42
l 46 47
l 47 48
l 46 48
l 48 49
l 46 49
l 49 50
l 46 50
l 50 47
l 51 52
l 52 53
l 51 53
l 53 54
l 51 54
l 54 55
l 51 55
l 55 52
l 56 57
l 57 58
l 56 58
l 58 59
l 56 59
l 59 60
l 56 60
l 60 57
l 61 62
l 62 63
l 61 63
l 63 64
l 61 64
l 64 65
l 61 65
l 65 62
l 66 67
l 67 68
l 66 68
l 68 69
l 66 69
l 69 70
l 66 70
l 70 67
l 71 72
l 72 73
l 71 73
l 73 74
l 71 74
l 74 75
l 71 75
l 75 72
l 76 77
l 77 78
l 76 78
l 78 79
l 76 79
l 79 80
l 76 80
l 80 77
l 81 82
l 82 83
l 81 83
l 83 84
l 81 84
l 84 85
l 81 85
l 85 82
l 86 87
l 87 88
l 86 88
l 88 89
l 86 89
l 89 90
l 86 90
l 90 87
l 91 92
l 92 93
l 91 93
l 93 94
l 91 94
l 94 95
l 91 95
l 95 92
l 96 97
l 97 98
l 96 98
l 98 99
l 96 99
l 99 100
l 96 100
l 100 97
l 101 102
l 102 103
l 101 103
l 103 104
l 101 104
l 104 105
l 101 105
l 105 102
l 106 107
l 107 108
l 106 108
l 108 109
l 106 109
l 109 110
l 106 110
l 110 107
l 111 112
l 112 113
l 111 113
l 113 114
l 111 114
l 114 115
l 111 115
l 115 112
l 116 117
l 117 118
l 116 118
l 118 119
l 116 119
l 119 120
l 116 120
l 120 117
l 121 122
l 122 123
l 121 123
l 123 124
l 121 124
l 124 125
l 121 125
l 125 122
l 126 127
l 127 128
l 126 128
l 128 129
l 126 129
l 129 130
l 126 130
l 130 127
l 131 132
l 132 133
l 131 133
l 133 134
l 131 134
l 134 135
l 131 135
l 135 132
l 136 137
l 137 138
l 136 138
l 138 139
l 136 139
l 139 140
l 136 140
l 140 137
l 141 142
l 142 143
l 141 143
l 143 144
l 141 144
l 144 145
l 141 145
l 145 142
l 146 147
l 147 148
l 146 148
l 148 149
l 146 149
l 149 150
l 146 150
l 150 147
l 151 152
l 152 153
l 151 153
l 153 154
l 151 154
l 154 155
l 151 155
l 155 152
l 156 157
l 157 158
l 156 158
l 158 159
l 156 159
l 159 160
l 156 160
l 160 157
l 161 162
l 162 163
l 161 163
l 163 164
l 161 164
l 164 165
l 161 165
l 165 162
l 166 167
l 167 168
l 166 168
l 168 169
l 166 169
l 169 170
l 166 170
l 170 167
l 171 172
l 172 173
l 171 173
l 173 174
l 171 174
l 174 175
l 171 175
l 175 172
l 176 177
l 177 178
l 176 178
l 178 179
l 176 179
l 179 180
l 176 180
l 180 177
l 181 182
l 182 183
l 181 183
l 183 184
l 181 184
l 184 185
l 181 185
l 185 182
l 186 187
l 187 188
l 186 188
l 188 189
l 186 189
l 189 190
l 186 190
l 190 187
l 191 192
l 192 193
l 191 193
l 193 194
l 191 194
l 194 195
l 191 195
l 195 192
l 196 197
l 197 198
l 196 198
l 198 199
l 196 199
l 199 200
l 196 200
l 200 197
